<?xml version="1.0" standalone="no"?><!DOCTYPE svg PUBLIC "-//W3C//DTD SVG 1.1//EN" "http://www.w3.org/Graphics/SVG/1.1/DTD/svg11.dtd"><svg t="1644293599885" class="icon" viewBox="0 0 1024 1024" version="1.1" xmlns="http://www.w3.org/2000/svg" p-id="1264" xmlns:xlink="http://www.w3.org/1999/xlink" width="200" height="200"><defs><style type="text/css"></style></defs><path d="M972.8 628.053333H745.813333c-15.36 0-29.013333 10.24-32.426666 23.893334l-37.546667 121.173333H348.16l-37.546667-121.173333c-5.12-13.653333-17.066667-23.893333-32.426666-23.893334H51.2c-10.24 0-17.066667 6.826667-17.066667 17.066667v264.533333c0 37.546667 30.72 68.266667 68.266667 68.266667h819.2c37.546667 0 68.266667-30.72 68.266667-68.266667V645.12c0-8.533333-6.826667-17.066667-17.066667-17.066667z" fill="#333333" p-id="1265"></path><path d="M989.866667 634.88L875.52 85.333333c-5.12-22.186667-25.6-39.253333-47.786667-39.253333H197.973333c-23.893333 0-44.373333 17.066667-47.786666 39.253333L34.133333 634.88c-1.706667 8.533333 0 17.066667 5.12 25.6 5.12 6.826667 11.946667 11.946667 20.48 13.653333h6.826667c6.826667 0 11.946667-1.706667 18.773333-5.12 6.826667-5.12 11.946667-11.946667 13.653334-20.48l110.933333-535.893333h602.453333L925.013333 648.533333c3.413333 17.066667 22.186667 29.013333 39.253334 25.6 8.533333-1.706667 15.36-6.826667 20.48-13.653333 5.12-8.533333 6.826667-17.066667 5.12-25.6z" fill="#333333" p-id="1266"></path><path d="M629.76 384L546.133333 467.626667V266.24c0-18.773333-15.36-32.426667-32.426666-32.426667-18.773333 0-32.426667 15.36-32.426667 32.426667v201.386667l-83.626667-83.626667c-13.653333-13.653333-34.133333-13.653333-46.08 0-13.653333 13.653333-13.653333 34.133333 0 46.08l139.946667 139.946667c3.413333 3.413333 6.826667 5.12 10.24 6.826666 1.706667 0 3.413333 1.706667 5.12 1.706667h17.066667c1.706667 0 3.413333-1.706667 5.12-1.706667 3.413333-1.706667 6.826667-3.413333 10.24-6.826666l139.946666-139.946667c13.653333-13.653333 13.653333-34.133333 0-46.08-17.066667-13.653333-37.546667-13.653333-49.493333 0z" fill="#333333" p-id="1267"></path></svg>